<svg xmlns="http://www.w3.org/2000/svg" viewBox="0 0 800 400" width="800" height="400">
  <defs>
    <linearGradient id="bgGrad" x1="0%" y1="0%" x2="100%" y2="100%">
      <stop offset="0%" stop-color="#0a0f1d"/>
      <stop offset="100%" stop-color="#050811"/>
    </linearGradient>
    <linearGradient id="cardGrad" x1="0%" y1="0%" x2="0%" y2="100%">
      <stop offset="0%" stop-color="#151e33"/>
      <stop offset="100%" stop-color="#0d1424"/>
    </linearGradient>
    <linearGradient id="accentGrad" x1="0%" y1="0%" x2="100%" y2="0%">
      <stop offset="0%" stop-color="#3b82f6"/>
      <stop offset="100%" stop-color="#06b6d4"/>
    </linearGradient>
    <filter id="glow" x="-20%" y="-20%" width="140%" height="140%">
      <feGaussianBlur stdDeviation="8" result="blur" />
      <feComposite in="SourceGraphic" in2="blur" operator="over" />
    </filter>
  </defs>

  <!-- Background -->
  <rect width="800" height="400" fill="url(#bgGrad)"/>
  
  <!-- Subtle Grid Pattern -->
  <g opacity="0.08" stroke="#38bdf8" stroke-width="1">
    <line x1="0" y1="80" x2="800" y2="80" />
    <line x1="0" y1="160" x2="800" y2="160" />
    <line x1="0" y1="240" x2="800" y2="240" />
    <line x1="0" y1="320" x2="800" y2="320" />
    <line x1="160" y1="0" x2="160" y2="400" />
    <line x1="320" y1="0" x2="320" y2="400" />
    <line x1="480" y1="0" x2="480" y2="400" />
    <line x1="640" y1="0" x2="640" y2="400" />
  </g>

  <!-- Window Frame -->
  <rect x="50" y="35" width="700" height="330" rx="12" fill="url(#cardGrad)" stroke="#1e293b" stroke-width="1.5"/>
  
  <!-- Window Header -->
  <rect x="50" y="35" width="700" height="42" rx="12" fill="#0f172a" stroke="#1e293b" stroke-width="1"/>
  <circle cx="75" cy="56" r="5" fill="#ef4444"/>
  <circle cx="92" cy="56" r="5" fill="#f59e0b"/>
  <circle cx="109" cy="56" r="5" fill="#10b981"/>
  <text x="140" y="61" fill="#94a3b8" font-family="system-ui, sans-serif" font-size="12" font-weight="600" letter-spacing="0.5">SLOTSMART // TIMETABLE OPTIMIZER &amp; SCHEDULER</text>
  <rect x="615" y="46" width="115" height="20" rx="10" fill="#065f46" opacity="0.6"/>
  <text x="627" y="60" fill="#34d399" font-family="system-ui, sans-serif" font-size="11" font-weight="600">● 0 CONFLICTS</text>

  <!-- Left Sidebar (Entities) -->
  <rect x="70" y="95" width="170" height="250" rx="8" fill="#090d16" stroke="#1e293b" stroke-width="1"/>
  <text x="85" y="122" fill="#64748b" font-family="system-ui, sans-serif" font-size="11" font-weight="700">RESOURCE ALLOCATION</text>
  
  <rect x="85" y="136" width="140" height="32" rx="6" fill="#1e293b"/>
  <text x="97" y="156" fill="#e2e8f0" font-family="system-ui, sans-serif" font-size="12">Faculty (48 Active)</text>

  <rect x="85" y="176" width="140" height="32" rx="6" fill="#1e293b"/>
  <text x="97" y="196" fill="#e2e8f0" font-family="system-ui, sans-serif" font-size="12">Lecture Halls (24)</text>

  <rect x="85" y="216" width="140" height="32" rx="6" fill="#1e293b"/>
  <text x="97" y="236" fill="#e2e8f0" font-family="system-ui, sans-serif" font-size="12">Exam Slots (16)</text>

  <rect x="85" y="270" width="140" height="60" rx="6" fill="#1e1b4b" stroke="#4338ca" stroke-width="1"/>
  <text x="95" y="293" fill="#a5b4fc" font-family="system-ui, sans-serif" font-size="11" font-weight="600">Optimization Metric</text>
  <text x="95" y="316" fill="#38bdf8" font-family="system-ui, sans-serif" font-size="16" font-weight="700">~70% Time Saved</text>

  <!-- Main Timetable Grid -->
  <rect x="255" y="95" width="475" height="250" rx="8" fill="#090d16" stroke="#1e293b" stroke-width="1"/>
  
  <!-- Days Header -->
  <text x="275" y="122" fill="#64748b" font-family="system-ui, sans-serif" font-size="11" font-weight="700">MON</text>
  <text x="365" y="122" fill="#64748b" font-family="system-ui, sans-serif" font-size="11" font-weight="700">TUE</text>
  <text x="455" y="122" fill="#64748b" font-family="system-ui, sans-serif" font-size="11" font-weight="700">WED</text>
  <text x="545" y="122" fill="#64748b" font-family="system-ui, sans-serif" font-size="11" font-weight="700">THU</text>
  <text x="635" y="122" fill="#64748b" font-family="system-ui, sans-serif" font-size="11" font-weight="700">FRI</text>

  <!-- Grid Cells -->
  <rect x="270" y="136" width="80" height="52" rx="6" fill="#1d4ed8" opacity="0.35" stroke="#3b82f6" stroke-width="1"/>
  <text x="278" y="156" fill="#93c5fd" font-family="system-ui, sans-serif" font-size="11" font-weight="600">CS-401</text>
  <text x="278" y="172" fill="#60a5fa" font-family="system-ui, sans-serif" font-size="10">Lab 3 • Grp A</text>

  <rect x="360" y="136" width="80" height="52" rx="6" fill="#0d9488" opacity="0.35" stroke="#14b8a6" stroke-width="1"/>
  <text x="368" y="156" fill="#99f6e4" font-family="system-ui, sans-serif" font-size="11" font-weight="600">AI-302</text>
  <text x="368" y="172" fill="#2dd4bf" font-family="system-ui, sans-serif" font-size="10">Hall 4 • Dr. R</text>

  <rect x="450" y="136" width="80" height="52" rx="6" fill="#1e293b"/>
  <text x="465" y="166" fill="#475569" font-family="system-ui, sans-serif" font-size="11">Open</text>

  <rect x="540" y="136" width="80" height="52" rx="6" fill="#4f46e5" opacity="0.35" stroke="#6366f1" stroke-width="1"/>
  <text x="548" y="156" fill="#c7d2fe" font-family="system-ui, sans-serif" font-size="11" font-weight="600">DS-201</text>
  <text x="548" y="172" fill="#818cf8" font-family="system-ui, sans-serif" font-size="10">Room 102</text>

  <rect x="630" y="136" width="80" height="52" rx="6" fill="#1d4ed8" opacity="0.35" stroke="#3b82f6" stroke-width="1"/>
  <text x="638" y="156" fill="#93c5fd" font-family="system-ui, sans-serif" font-size="11" font-weight="600">SE-502</text>
  <text x="638" y="172" fill="#60a5fa" font-family="system-ui, sans-serif" font-size="10">Audit 1</text>

  <!-- Row 2 -->
  <rect x="270" y="198" width="80" height="52" rx="6" fill="#4f46e5" opacity="0.35" stroke="#6366f1" stroke-width="1"/>
  <text x="278" y="218" fill="#c7d2fe" font-family="system-ui, sans-serif" font-size="11" font-weight="600">DBMS-3</text>
  <text x="278" y="234" fill="#818cf8" font-family="system-ui, sans-serif" font-size="10">Lab 1</text>

  <rect x="360" y="198" width="80" height="52" rx="6" fill="#1e293b"/>
  <text x="380" y="228" fill="#475569" font-family="system-ui, sans-serif" font-size="11">Open</text>

  <rect x="450" y="198" width="80" height="52" rx="6" fill="#0d9488" opacity="0.35" stroke="#14b8a6" stroke-width="1"/>
  <text x="458" y="218" fill="#99f6e4" font-family="system-ui, sans-serif" font-size="11" font-weight="600">CN-401</text>
  <text x="458" y="234" fill="#2dd4bf" font-family="system-ui, sans-serif" font-size="10">Hall 2</text>

  <rect x="540" y="198" width="80" height="52" rx="6" fill="#1d4ed8" opacity="0.35" stroke="#3b82f6" stroke-width="1"/>
  <text x="548" y="218" fill="#93c5fd" font-family="system-ui, sans-serif" font-size="11" font-weight="600">OS-301</text>
  <text x="548" y="234" fill="#60a5fa" font-family="system-ui, sans-serif" font-size="10">Room 205</text>

  <rect x="630" y="198" width="80" height="52" rx="6" fill="#0891b2" opacity="0.35" stroke="#06b6d4" stroke-width="1"/>
  <text x="638" y="218" fill="#a5f3fc" font-family="system-ui, sans-serif" font-size="11" font-weight="600">EXAM-P</text>
  <text x="638" y="234" fill="#22d3ee" font-family="system-ui, sans-serif" font-size="10">Auto-Arranged</text>

  <!-- Status Bar at bottom -->
  <rect x="270" y="265" width="440" height="65" rx="6" fill="#0f172a" stroke="#1e293b" stroke-width="1"/>
  <circle cx="295" cy="297" r="14" fill="#3b82f6" opacity="0.2"/>
  <path d="M290 297 L294 301 L301 292" stroke="#38bdf8" stroke-width="2" fill="none" stroke-linecap="round"/>
  <text x="320" y="293" fill="#f8fafc" font-family="system-ui, sans-serif" font-size="12" font-weight="600">Conflict-Free Solver Engine</text>
  <text x="320" y="311" fill="#94a3b8" font-family="system-ui, sans-serif" font-size="11">MongoDB schema + Redis lock sync • 5+ Institutions Deployed</text>
</svg>
